<mxfile host="app.diagrams.net" modified="2024-05-10T14:04:26.059Z" agent="Mozilla/5.0 (Windows NT 10.0; Win64; x64) AppleWebKit/537.36 (KHTML, like Gecko) Chrome/124.0.0.0 Safari/537.36" etag="Ln2EaUVbedQ0r2UNZ_cS" version="24.3.1" type="github">
  <diagram name="Página-1" id="llWYkJYFVfYndDLkw2G8">
    <mxGraphModel dx="1434" dy="738" grid="1" gridSize="10" guides="1" tooltips="1" connect="1" arrows="1" fold="1" page="1" pageScale="1" pageWidth="827" pageHeight="1169" math="0" shadow="0">
      <root>
        <mxCell id="0" />
        <mxCell id="1" parent="0" />
        <mxCell id="AJSb_2j-f9QomAZLJXQX-1" value="&lt;span style=&quot;font-family: &amp;quot;Söhne Mono&amp;quot;, Monaco, &amp;quot;Andale Mono&amp;quot;, &amp;quot;Ubuntu Mono&amp;quot;, monospace; font-size: 17.5px; text-align: left; white-space: pre; background-color: rgb(255, 255, 255);&quot;&gt;iPhone&lt;/span&gt;" style="swimlane;fontStyle=0;childLayout=stackLayout;horizontal=1;startSize=26;fillColor=none;horizontalStack=0;resizeParent=1;resizeParentMax=0;resizeLast=0;collapsible=1;marginBottom=0;whiteSpace=wrap;html=1;" vertex="1" parent="1">
          <mxGeometry x="304" y="50" width="220" height="104" as="geometry">
            <mxRectangle x="304" y="50" width="100" height="30" as="alternateBounds" />
          </mxGeometry>
        </mxCell>
        <mxCell id="AJSb_2j-f9QomAZLJXQX-2" value="&lt;span style=&quot;font-family: &amp;quot;Söhne Mono&amp;quot;, Monaco, &amp;quot;Andale Mono&amp;quot;, &amp;quot;Ubuntu Mono&amp;quot;, monospace; white-space: pre; background-color: rgb(255, 255, 255);&quot;&gt;&lt;font style=&quot;font-size: 15px;&quot;&gt;+ ReprodutorMusical&lt;/font&gt;&lt;/span&gt;" style="text;strokeColor=none;fillColor=none;align=left;verticalAlign=top;spacingLeft=4;spacingRight=4;overflow=hidden;rotatable=0;points=[[0,0.5],[1,0.5]];portConstraint=eastwest;whiteSpace=wrap;html=1;" vertex="1" parent="AJSb_2j-f9QomAZLJXQX-1">
          <mxGeometry y="26" width="220" height="26" as="geometry" />
        </mxCell>
        <mxCell id="AJSb_2j-f9QomAZLJXQX-3" value="&lt;span style=&quot;font-family: &amp;quot;Söhne Mono&amp;quot;, Monaco, &amp;quot;Andale Mono&amp;quot;, &amp;quot;Ubuntu Mono&amp;quot;, monospace; white-space: pre; background-color: rgb(255, 255, 255);&quot;&gt;&lt;font style=&quot;font-size: 15px;&quot;&gt;+ AparelhoTelefonico             &lt;/font&gt;&lt;/span&gt;" style="text;strokeColor=none;fillColor=none;align=left;verticalAlign=top;spacingLeft=4;spacingRight=4;overflow=hidden;rotatable=0;points=[[0,0.5],[1,0.5]];portConstraint=eastwest;whiteSpace=wrap;html=1;" vertex="1" parent="AJSb_2j-f9QomAZLJXQX-1">
          <mxGeometry y="52" width="220" height="26" as="geometry" />
        </mxCell>
        <mxCell id="AJSb_2j-f9QomAZLJXQX-4" value="&lt;span style=&quot;font-family: &amp;quot;Söhne Mono&amp;quot;, Monaco, &amp;quot;Andale Mono&amp;quot;, &amp;quot;Ubuntu Mono&amp;quot;, monospace; white-space: pre; background-color: rgb(255, 255, 255);&quot;&gt;&lt;font style=&quot;font-size: 15px;&quot;&gt;+ NavegadorInternet&lt;/font&gt;&lt;/span&gt;" style="text;strokeColor=none;fillColor=none;align=left;verticalAlign=top;spacingLeft=4;spacingRight=4;overflow=hidden;rotatable=0;points=[[0,0.5],[1,0.5]];portConstraint=eastwest;whiteSpace=wrap;html=1;" vertex="1" parent="AJSb_2j-f9QomAZLJXQX-1">
          <mxGeometry y="78" width="220" height="26" as="geometry" />
        </mxCell>
        <mxCell id="AJSb_2j-f9QomAZLJXQX-6" value="&lt;span style=&quot;font-family: &amp;quot;Söhne Mono&amp;quot;, Monaco, &amp;quot;Andale Mono&amp;quot;, &amp;quot;Ubuntu Mono&amp;quot;, monospace; font-size: 17.5px; text-align: left; white-space: pre;&quot;&gt;ReprodutorMusical&lt;/span&gt;" style="swimlane;fontStyle=0;childLayout=stackLayout;horizontal=1;startSize=26;fillColor=none;horizontalStack=0;resizeParent=1;resizeParentMax=0;resizeLast=0;collapsible=1;marginBottom=0;whiteSpace=wrap;html=1;labelBackgroundColor=default;fontColor=default;" vertex="1" parent="1">
          <mxGeometry x="10" y="230" width="251" height="104" as="geometry" />
        </mxCell>
        <mxCell id="AJSb_2j-f9QomAZLJXQX-7" value="+ tocar()" style="text;strokeColor=none;fillColor=none;align=left;verticalAlign=top;spacingLeft=4;spacingRight=4;overflow=hidden;rotatable=0;points=[[0,0.5],[1,0.5]];portConstraint=eastwest;whiteSpace=wrap;html=1;" vertex="1" parent="AJSb_2j-f9QomAZLJXQX-6">
          <mxGeometry y="26" width="251" height="26" as="geometry" />
        </mxCell>
        <mxCell id="AJSb_2j-f9QomAZLJXQX-8" value="+ pausar()" style="text;strokeColor=none;fillColor=none;align=left;verticalAlign=top;spacingLeft=4;spacingRight=4;overflow=hidden;rotatable=0;points=[[0,0.5],[1,0.5]];portConstraint=eastwest;whiteSpace=wrap;html=1;" vertex="1" parent="AJSb_2j-f9QomAZLJXQX-6">
          <mxGeometry y="52" width="251" height="26" as="geometry" />
        </mxCell>
        <mxCell id="AJSb_2j-f9QomAZLJXQX-9" value="+ selecionarMusica()" style="text;strokeColor=none;fillColor=none;align=left;verticalAlign=top;spacingLeft=4;spacingRight=4;overflow=hidden;rotatable=0;points=[[0,0.5],[1,0.5]];portConstraint=eastwest;whiteSpace=wrap;html=1;" vertex="1" parent="AJSb_2j-f9QomAZLJXQX-6">
          <mxGeometry y="78" width="251" height="26" as="geometry" />
        </mxCell>
        <mxCell id="AJSb_2j-f9QomAZLJXQX-11" value="&lt;span style=&quot;font-family: &amp;quot;Söhne Mono&amp;quot;, Monaco, &amp;quot;Andale Mono&amp;quot;, &amp;quot;Ubuntu Mono&amp;quot;, monospace; font-size: 17.5px; text-align: left; white-space: pre;&quot;&gt;AparelhoTelefonico&lt;/span&gt;" style="swimlane;fontStyle=0;childLayout=stackLayout;horizontal=1;startSize=26;fillColor=none;horizontalStack=0;resizeParent=1;resizeParentMax=0;resizeLast=0;collapsible=1;marginBottom=0;whiteSpace=wrap;html=1;labelBackgroundColor=default;fontColor=default;" vertex="1" parent="1">
          <mxGeometry x="290" y="230" width="260" height="104" as="geometry" />
        </mxCell>
        <mxCell id="AJSb_2j-f9QomAZLJXQX-12" value="+ ligar()" style="text;strokeColor=none;fillColor=none;align=left;verticalAlign=top;spacingLeft=4;spacingRight=4;overflow=hidden;rotatable=0;points=[[0,0.5],[1,0.5]];portConstraint=eastwest;whiteSpace=wrap;html=1;" vertex="1" parent="AJSb_2j-f9QomAZLJXQX-11">
          <mxGeometry y="26" width="260" height="26" as="geometry" />
        </mxCell>
        <mxCell id="AJSb_2j-f9QomAZLJXQX-13" value="+ atender()" style="text;strokeColor=none;fillColor=none;align=left;verticalAlign=top;spacingLeft=4;spacingRight=4;overflow=hidden;rotatable=0;points=[[0,0.5],[1,0.5]];portConstraint=eastwest;whiteSpace=wrap;html=1;" vertex="1" parent="AJSb_2j-f9QomAZLJXQX-11">
          <mxGeometry y="52" width="260" height="26" as="geometry" />
        </mxCell>
        <mxCell id="AJSb_2j-f9QomAZLJXQX-14" value="+ iniciarCorreioVoz()" style="text;strokeColor=none;fillColor=none;align=left;verticalAlign=top;spacingLeft=4;spacingRight=4;overflow=hidden;rotatable=0;points=[[0,0.5],[1,0.5]];portConstraint=eastwest;whiteSpace=wrap;html=1;" vertex="1" parent="AJSb_2j-f9QomAZLJXQX-11">
          <mxGeometry y="78" width="260" height="26" as="geometry" />
        </mxCell>
        <mxCell id="AJSb_2j-f9QomAZLJXQX-15" value="&lt;div style=&quot;text-align: left;&quot;&gt;&lt;font face=&quot;Söhne Mono, Monaco, Andale Mono, Ubuntu Mono, monospace&quot;&gt;&lt;span style=&quot;font-size: 17.5px; white-space: pre;&quot;&gt;NavegadorInternet&lt;/span&gt;&lt;/font&gt;&lt;/div&gt;" style="swimlane;fontStyle=0;childLayout=stackLayout;horizontal=1;startSize=26;fillColor=none;horizontalStack=0;resizeParent=1;resizeParentMax=0;resizeLast=0;collapsible=1;marginBottom=0;whiteSpace=wrap;html=1;labelBackgroundColor=default;fontColor=default;" vertex="1" parent="1">
          <mxGeometry x="567" y="230" width="260" height="104" as="geometry" />
        </mxCell>
        <mxCell id="AJSb_2j-f9QomAZLJXQX-16" value="+ exibirPagina()" style="text;strokeColor=none;fillColor=none;align=left;verticalAlign=top;spacingLeft=4;spacingRight=4;overflow=hidden;rotatable=0;points=[[0,0.5],[1,0.5]];portConstraint=eastwest;whiteSpace=wrap;html=1;" vertex="1" parent="AJSb_2j-f9QomAZLJXQX-15">
          <mxGeometry y="26" width="260" height="26" as="geometry" />
        </mxCell>
        <mxCell id="AJSb_2j-f9QomAZLJXQX-17" value="+ adicionarNovaAba()" style="text;strokeColor=none;fillColor=none;align=left;verticalAlign=top;spacingLeft=4;spacingRight=4;overflow=hidden;rotatable=0;points=[[0,0.5],[1,0.5]];portConstraint=eastwest;whiteSpace=wrap;html=1;" vertex="1" parent="AJSb_2j-f9QomAZLJXQX-15">
          <mxGeometry y="52" width="260" height="26" as="geometry" />
        </mxCell>
        <mxCell id="AJSb_2j-f9QomAZLJXQX-18" value="+ atualizarPagina()" style="text;strokeColor=none;fillColor=none;align=left;verticalAlign=top;spacingLeft=4;spacingRight=4;overflow=hidden;rotatable=0;points=[[0,0.5],[1,0.5]];portConstraint=eastwest;whiteSpace=wrap;html=1;" vertex="1" parent="AJSb_2j-f9QomAZLJXQX-15">
          <mxGeometry y="78" width="260" height="26" as="geometry" />
        </mxCell>
        <mxCell id="AJSb_2j-f9QomAZLJXQX-22" value="" style="endArrow=block;dashed=1;endFill=0;endSize=12;html=1;rounded=0;entryX=0;entryY=0.5;entryDx=0;entryDy=0;exitX=0.359;exitY=-0.019;exitDx=0;exitDy=0;exitPerimeter=0;" edge="1" parent="1" source="AJSb_2j-f9QomAZLJXQX-6" target="AJSb_2j-f9QomAZLJXQX-3">
          <mxGeometry width="160" relative="1" as="geometry">
            <mxPoint x="80" y="170" as="sourcePoint" />
            <mxPoint x="240" y="170" as="targetPoint" />
          </mxGeometry>
        </mxCell>
        <mxCell id="AJSb_2j-f9QomAZLJXQX-23" value="" style="endArrow=block;dashed=1;endFill=0;endSize=12;html=1;rounded=0;entryX=0.459;entryY=1.192;entryDx=0;entryDy=0;entryPerimeter=0;" edge="1" parent="1" target="AJSb_2j-f9QomAZLJXQX-4">
          <mxGeometry width="160" relative="1" as="geometry">
            <mxPoint x="405" y="220" as="sourcePoint" />
            <mxPoint x="314" y="125" as="targetPoint" />
          </mxGeometry>
        </mxCell>
        <mxCell id="AJSb_2j-f9QomAZLJXQX-24" value="" style="endArrow=block;dashed=1;endFill=0;endSize=12;html=1;rounded=0;entryX=1;entryY=0.5;entryDx=0;entryDy=0;exitX=0.5;exitY=0;exitDx=0;exitDy=0;" edge="1" parent="1" source="AJSb_2j-f9QomAZLJXQX-15" target="AJSb_2j-f9QomAZLJXQX-3">
          <mxGeometry width="160" relative="1" as="geometry">
            <mxPoint x="120" y="248" as="sourcePoint" />
            <mxPoint x="324" y="135" as="targetPoint" />
          </mxGeometry>
        </mxCell>
      </root>
    </mxGraphModel>
  </diagram>
</mxfile>
